<svg width="236.0300109863281px" height="120.8px" xmlns="http://www.w3.org/2000/svg" viewBox="131.98499450683596 14.600000000000001 236.0300109863281 120.8" style="background: rgba(0, 0, 0, 0);" preserveAspectRatio="xMidYMid"><defs><filter id="editing-extrude-glow"><feFlood flood-color="#333333" result="flood-1"></feFlood><feMorphology operator="erode" radius="1" in="SourceAlpha" result="erode"></feMorphology><feComposite operator="in" in="flood-1" in2="erode" result="comp1"></feComposite><feConvolveMatrix order="3,3" divisor="1" in="comp1" result="convolve" kernelMatrix="0 0 0 1 1 1 0 0 0"></feConvolveMatrix><feOffset dx="-3" dy="0" in="convolve" result="extrude"></feOffset><feComposite operator="in" in="flood-1" in2="extrude" result="comp-extrude"></feComposite><feFlood flood-color="#000000" result="flood-2"></feFlood><feComposite operator="in" in="flood-2" in2="SourceAlpha" result="comp2"></feComposite><feMorphology operator="dilate" radius="1" in="comp2" result="dilate"></feMorphology><feOffset dx="-4.5" dy="0" in="dilate" result="offset"></feOffset><feGaussianBlur in="offset" stdDeviation="5.8" result="blur"></feGaussianBlur><feComponentTransfer in="blur" result="shadow"><feFuncA type="linear" slope="0.8" intercept="-0.2"></feFuncA></feComponentTransfer><feMerge><feMergeNode in="shadow"></feMergeNode><feMergeNode in="comp-extrude"></feMergeNode><feMergeNode in="SourceGraphic"></feMergeNode></feMerge></filter></defs><g filter="url(#editing-extrude-glow)"><g transform="translate(169.17001962661743, 98.68000030517578)"><path d="M6.21-31.17L6.21-31.17L6.21-31.17Q4.03-32.83 4.03-36.38L4.03-36.38L4.03-36.38Q4.03-39.94 6.37-41.79L6.37-41.79L6.37-41.79Q8.70-43.65 12.74-43.65L12.74-43.65L12.74-43.65Q15.30-43.65 21.38-42.75L21.38-42.75L25.73-42.11L25.73-42.11Q27.90-41.86 30.18-41.86L30.18-41.86L30.18-41.86Q32.45-41.86 33.98-42.82L33.98-42.82L33.98-42.82Q36.29-40.77 36.29-37.82L36.29-37.82L36.29-37.82Q36.29-34.88 33.66-32.77L33.66-32.77L33.66-32.77Q30.98-30.53 27.52-30.53L27.52-30.53L27.52-30.53Q25.86-30.53 23.17-30.98L23.17-30.98L23.17-30.98Q20.03-21.12 20.03-14.27L20.03-14.27L20.03-14.27Q20.03-7.42 23.49-3.84L23.49-3.84L23.49-3.84Q21.89-0.96 19.52 0.16L19.52 0.16L19.52 0.16Q17.15 1.28 13.60 1.28L13.60 1.28L13.60 1.28Q10.05 1.28 7.84-0.67L7.84-0.67L7.84-0.67Q5.63-2.62 5.63-6.66L5.63-6.66L5.63-6.66Q5.63-11.33 8.19-19.01L8.19-19.01L8.19-19.01Q10.75-26.62 14.59-32.45L14.59-32.45L14.59-32.45Q12.74-32.64 10.82-32.64L10.82-32.64L10.82-32.64Q6.85-32.64 6.21-31.17ZM45.25 1.28L45.25 1.28L45.25 1.28Q31.17 1.28 31.17-11.97L31.17-11.97L31.17-11.97Q31.17-21.38 36.35-27.46L36.35-27.46L36.35-27.46Q41.86-33.92 51.39-33.92L51.39-33.92L51.39-33.92Q58.30-33.92 61.82-30.72L61.82-30.72L61.82-30.72Q65.34-27.52 65.34-20.80L65.34-20.80L65.34-20.80Q65.34-10.56 59.84-4.61L59.84-4.61L59.84-4.61Q54.46 1.28 45.25 1.28ZM46.91-26.56L46.91-26.56L46.91-26.56Q46.14-24.83 45.54-22.24L45.54-22.24L45.54-22.24Q44.93-19.65 44.16-15.55L44.16-15.55L44.16-15.55Q43.39-11.46 43.39-6.40L43.39-6.40L43.39-6.40Q43.39-4.74 43.94-3.65L43.94-3.65L43.94-3.65Q44.48-2.56 45.95-2.56L45.95-2.56L45.95-2.56Q47.42-2.56 48.35-3.26L48.35-3.26L48.35-3.26Q49.28-3.97 49.98-5.63L49.98-5.63L49.98-5.63Q51.26-8.58 52.29-14.05L52.29-14.05L52.29-14.05Q53.31-19.52 53.41-21.89L53.41-21.89L53.41-21.89Q53.50-24.26 53.50-26.02L53.50-26.02L53.50-26.02Q53.50-27.78 52.99-28.93L52.99-28.93L52.99-28.93Q52.48-30.08 51.04-30.08L51.04-30.08L51.04-30.08Q49.60-30.08 48.64-29.18L48.64-29.18L48.64-29.18Q47.68-28.29 46.91-26.56ZM83.07 1.28L83.07 1.28L83.07 1.28Q68.99 1.28 68.99-11.97L68.99-11.97L68.99-11.97Q68.99-21.38 74.18-27.46L74.18-27.46L74.18-27.46Q79.68-33.92 89.22-33.92L89.22-33.92L89.22-33.92Q96.13-33.92 99.65-30.72L99.65-30.72L99.65-30.72Q103.17-27.52 103.17-20.80L103.17-20.80L103.17-20.80Q103.17-10.56 97.66-4.61L97.66-4.61L97.66-4.61Q92.29 1.28 83.07 1.28ZM84.74-26.56L84.74-26.56L84.74-26.56Q83.97-24.83 83.36-22.24L83.36-22.24L83.36-22.24Q82.75-19.65 81.98-15.55L81.98-15.55L81.98-15.55Q81.22-11.46 81.22-6.40L81.22-6.40L81.22-6.40Q81.22-4.74 81.76-3.65L81.76-3.65L81.76-3.65Q82.30-2.56 83.78-2.56L83.78-2.56L83.78-2.56Q85.25-2.56 86.18-3.26L86.18-3.26L86.18-3.26Q87.10-3.97 87.81-5.63L87.81-5.63L87.81-5.63Q89.09-8.58 90.11-14.05L90.11-14.05L90.11-14.05Q91.14-19.52 91.23-21.89L91.23-21.89L91.23-21.89Q91.33-24.26 91.33-26.02L91.33-26.02L91.33-26.02Q91.33-27.78 90.82-28.93L90.82-28.93L90.82-28.93Q90.30-30.08 88.86-30.08L88.86-30.08L88.86-30.08Q87.42-30.08 86.46-29.18L86.46-29.18L86.46-29.18Q85.50-28.29 84.74-26.56ZM122.24-3.52L122.24-3.52L122.24-3.52Q120.26 1.28 113.92 1.28L113.92 1.28L113.92 1.28Q110.72 1.28 108.67-0.96L108.67-0.96L108.67-0.96Q107.01-2.82 107.01-4.93L107.01-4.93L107.01-4.93Q107.01-9.73 109.25-20.22L109.25-20.22L113.92-44.80L126.91-46.08L120.70-13.70L120.70-13.70Q119.62-8.96 119.62-7.30L119.62-7.30L119.62-7.30Q119.62-3.65 122.24-3.52ZM140 0.64L140 0.64L140 0.64Q136.96 0 135.39-0.29L135.39-0.29L135.39-0.29Q133.82-0.58 132-0.58L132-0.58L132-0.58Q130.18-0.58 128.38 0.06L128.38 0.06L128.38 0.06Q127.42-0.51 126.82-1.66L126.82-1.66L126.82-1.66Q126.21-2.82 126.21-4.61L126.21-4.61L126.21-4.61Q126.21-8.38 130.05-11.26L130.05-11.26L146.30-22.98L146.30-22.98Q141.76-24.26 137.63-24.26L137.63-24.26L137.63-24.26Q133.50-24.26 132.03-21.44L132.03-21.44L132.03-21.44Q129.86-24 129.86-28.03L129.86-28.03L129.86-28.03Q129.86-30.72 131.81-32.48L131.81-32.48L131.81-32.48Q133.76-34.24 137.86-34.24L137.86-34.24L137.86-34.24Q140.16-34.24 142.24-33.95L142.24-33.95L142.24-33.95Q144.32-33.66 146.18-33.41L146.18-33.41L149.63-32.90L149.63-32.90Q151.30-32.64 152.99-32.64L152.99-32.64L152.99-32.64Q154.69-32.64 155.97-33.34L155.97-33.34L155.97-33.34Q157.63-31.81 157.63-29.70L157.63-29.70L157.63-29.70Q157.63-26.37 153.54-22.91L153.54-22.91L137.34-10.82L137.34-10.82Q142.34-9.34 144.90-9.34L144.90-9.34L144.90-9.34Q150.27-9.34 152.58-11.90L152.58-11.90L152.58-11.90Q154.37-9.86 154.37-6.30L154.37-6.30L154.37-6.30Q154.37-2.75 152.06-0.74L152.06-0.74L152.06-0.74Q149.76 1.28 145.60 1.28L145.60 1.28L145.60 1.28Q143.04 1.28 140 0.64Z" fill="#eb6c6c"></path></g></g><style>text {
  font-size: 64px;
  font-family: Arial Black;
  dominant-baseline: central;
  text-anchor: middle;
}</style></svg>